<svg width="143" height="61" viewBox="0 0 143 61" fill="none" xmlns="http://www.w3.org/2000/svg">
<path d="M5.80078 7.40625L11.1445 19.0781L16.4883 7.40625H22.2363L13.8164 23.6836V33H8.47266V23.6836L0.0351562 7.40625H5.80078ZM22.2891 23.6836V23.3145C22.2891 21.9199 22.4883 20.6367 22.8867 19.4648C23.2852 18.2812 23.8652 17.2559 24.627 16.3887C25.3887 15.5215 26.3262 14.8477 27.4395 14.3672C28.5527 13.875 29.8301 13.6289 31.2715 13.6289C32.7129 13.6289 33.9961 13.875 35.1211 14.3672C36.2461 14.8477 37.1895 15.5215 37.9512 16.3887C38.7246 17.2559 39.3105 18.2812 39.709 19.4648C40.1074 20.6367 40.3066 21.9199 40.3066 23.3145V23.6836C40.3066 25.0664 40.1074 26.3496 39.709 27.5332C39.3105 28.7051 38.7246 29.7305 37.9512 30.6094C37.1895 31.4766 36.252 32.1504 35.1387 32.6309C34.0254 33.1113 32.748 33.3516 31.3066 33.3516C29.8652 33.3516 28.582 33.1113 27.457 32.6309C26.3438 32.1504 25.4004 31.4766 24.627 30.6094C23.8652 29.7305 23.2852 28.7051 22.8867 27.5332C22.4883 26.3496 22.2891 25.0664 22.2891 23.6836ZM27.3516 23.3145V23.6836C27.3516 24.4805 27.4219 25.2246 27.5625 25.916C27.7031 26.6074 27.9258 27.2168 28.2305 27.7441C28.5469 28.2598 28.957 28.6641 29.4609 28.957C29.9648 29.25 30.5801 29.3965 31.3066 29.3965C32.0098 29.3965 32.6133 29.25 33.1172 28.957C33.6211 28.6641 34.0254 28.2598 34.3301 27.7441C34.6348 27.2168 34.8574 26.6074 34.998 25.916C35.1504 25.2246 35.2266 24.4805 35.2266 23.6836V23.3145C35.2266 22.541 35.1504 21.8145 34.998 21.1348C34.8574 20.4434 34.6289 19.834 34.3125 19.3066C34.0078 18.7676 33.6035 18.3457 33.0996 18.041C32.5957 17.7363 31.9863 17.584 31.2715 17.584C30.5566 17.584 29.9473 17.7363 29.4434 18.041C28.9512 18.3457 28.5469 18.7676 28.2305 19.3066C27.9258 19.834 27.7031 20.4434 27.5625 21.1348C27.4219 21.8145 27.3516 22.541 27.3516 23.3145ZM54.668 28.4473V13.9805H59.7305V33H54.9668L54.668 28.4473ZM55.2305 24.5449L56.7246 24.5098C56.7246 25.7754 56.5781 26.9531 56.2852 28.043C55.9922 29.1211 55.5527 30.0586 54.9668 30.8555C54.3809 31.6406 53.6426 32.2559 52.752 32.7012C51.8613 33.1348 50.8125 33.3516 49.6055 33.3516C48.6797 33.3516 47.8242 33.2227 47.0391 32.9648C46.2656 32.6953 45.5977 32.2793 45.0352 31.7168C44.4844 31.1426 44.0508 30.4102 43.7344 29.5195C43.4297 28.6172 43.2773 27.5332 43.2773 26.2676V13.9805H48.3398V26.3027C48.3398 26.8652 48.4043 27.3398 48.5332 27.7266C48.6738 28.1133 48.8672 28.4297 49.1133 28.6758C49.3594 28.9219 49.6465 29.0977 49.9746 29.2031C50.3145 29.3086 50.6895 29.3613 51.0996 29.3613C52.1426 29.3613 52.9629 29.1504 53.5605 28.7285C54.1699 28.3066 54.5977 27.7324 54.8438 27.0059C55.1016 26.2676 55.2305 25.4473 55.2305 24.5449Z" fill="white"/>
<path d="M75.3574 7.40625V33H70.1016V7.40625H75.3574ZM83.2324 7.40625V11.5371H62.3496V7.40625H83.2324ZM95.8359 28.4473V13.9805H100.898V33H96.1348L95.8359 28.4473ZM96.3984 24.5449L97.8926 24.5098C97.8926 25.7754 97.7461 26.9531 97.4531 28.043C97.1602 29.1211 96.7207 30.0586 96.1348 30.8555C95.5488 31.6406 94.8105 32.2559 93.9199 32.7012C93.0293 33.1348 91.9805 33.3516 90.7734 33.3516C89.8477 33.3516 88.9922 33.2227 88.207 32.9648C87.4336 32.6953 86.7656 32.2793 86.2031 31.7168C85.6523 31.1426 85.2188 30.4102 84.9023 29.5195C84.5977 28.6172 84.4453 27.5332 84.4453 26.2676V13.9805H89.5078V26.3027C89.5078 26.8652 89.5723 27.3398 89.7012 27.7266C89.8418 28.1133 90.0352 28.4297 90.2812 28.6758C90.5273 28.9219 90.8145 29.0977 91.1426 29.2031C91.4824 29.3086 91.8574 29.3613 92.2676 29.3613C93.3105 29.3613 94.1309 29.1504 94.7285 28.7285C95.3379 28.3066 95.7656 27.7324 96.0117 27.0059C96.2695 26.2676 96.3984 25.4473 96.3984 24.5449ZM104.766 6H109.828V28.6406L109.318 33H104.766V6ZM121.869 23.2969V23.666C121.869 25.084 121.717 26.3848 121.412 27.5684C121.119 28.752 120.662 29.7773 120.041 30.6445C119.42 31.5 118.646 32.168 117.721 32.6484C116.807 33.1172 115.729 33.3516 114.486 33.3516C113.326 33.3516 112.318 33.1172 111.463 32.6484C110.619 32.1797 109.91 31.5176 109.336 30.6621C108.762 29.8066 108.299 28.8047 107.947 27.6562C107.596 26.5078 107.332 25.2539 107.156 23.8945V23.0859C107.332 21.7266 107.596 20.4727 107.947 19.3242C108.299 18.1758 108.762 17.1738 109.336 16.3184C109.91 15.4629 110.619 14.8008 111.463 14.332C112.307 13.8633 113.303 13.6289 114.451 13.6289C115.705 13.6289 116.795 13.8691 117.721 14.3496C118.658 14.8184 119.432 15.4863 120.041 16.3535C120.662 17.209 121.119 18.2285 121.412 19.4121C121.717 20.584 121.869 21.8789 121.869 23.2969ZM116.807 23.666V23.2969C116.807 22.5234 116.748 21.7969 116.631 21.1172C116.525 20.4258 116.338 19.8223 116.068 19.3066C115.799 18.7793 115.43 18.3633 114.961 18.0586C114.504 17.7539 113.912 17.6016 113.186 17.6016C112.494 17.6016 111.908 17.7188 111.428 17.9531C110.947 18.1875 110.549 18.5156 110.232 18.9375C109.928 19.3594 109.699 19.8633 109.547 20.4492C109.395 21.0234 109.301 21.6562 109.266 22.3477V24.6504C109.301 25.5762 109.453 26.3965 109.723 27.1113C110.004 27.8145 110.426 28.3711 110.988 28.7812C111.562 29.1797 112.307 29.3789 113.221 29.3789C113.936 29.3789 114.527 29.2383 114.996 28.957C115.465 28.6758 115.828 28.2773 116.086 27.7617C116.355 27.2461 116.543 26.6426 116.648 25.9512C116.754 25.248 116.807 24.4863 116.807 23.666ZM133.77 33.3516C132.293 33.3516 130.969 33.1172 129.797 32.6484C128.625 32.168 127.629 31.5059 126.809 30.6621C126 29.8184 125.379 28.8398 124.945 27.7266C124.512 26.6016 124.295 25.4062 124.295 24.1406V23.4375C124.295 21.9961 124.5 20.6777 124.91 19.4824C125.32 18.2871 125.906 17.25 126.668 16.3711C127.441 15.4922 128.379 14.8184 129.48 14.3496C130.582 13.8691 131.824 13.6289 133.207 13.6289C134.555 13.6289 135.75 13.8516 136.793 14.2969C137.836 14.7422 138.709 15.375 139.412 16.1953C140.127 17.0156 140.666 18 141.029 19.1484C141.393 20.2852 141.574 21.5508 141.574 22.9453V25.0547H126.457V21.6797H136.6V21.293C136.6 20.5898 136.471 19.9629 136.213 19.4121C135.967 18.8496 135.592 18.4043 135.088 18.0762C134.584 17.748 133.939 17.584 133.154 17.584C132.486 17.584 131.912 17.7305 131.432 18.0234C130.951 18.3164 130.559 18.7266 130.254 19.2539C129.961 19.7812 129.738 20.4023 129.586 21.1172C129.445 21.8203 129.375 22.5938 129.375 23.4375V24.1406C129.375 24.9023 129.48 25.6055 129.691 26.25C129.914 26.8945 130.225 27.4512 130.623 27.9199C131.033 28.3887 131.525 28.752 132.1 29.0098C132.686 29.2676 133.348 29.3965 134.086 29.3965C135 29.3965 135.85 29.2207 136.635 28.8691C137.432 28.5059 138.117 27.9609 138.691 27.2344L141.152 29.9062C140.754 30.4805 140.209 31.0312 139.518 31.5586C138.838 32.0859 138.018 32.5195 137.057 32.8594C136.096 33.1875 135 33.3516 133.77 33.3516Z" fill="#FF0303"/>
<path d="M8.4375 52.0078H5.51562L5.5 50.3984H7.95312C8.38542 50.3984 8.73958 50.3438 9.01562 50.2344C9.29167 50.1198 9.4974 49.9557 9.63281 49.7422C9.77344 49.5234 9.84375 49.2578 9.84375 48.9453C9.84375 48.5911 9.77604 48.3047 9.64062 48.0859C9.51042 47.8672 9.30469 47.7083 9.02344 47.6094C8.7474 47.5104 8.39062 47.4609 7.95312 47.4609H6.32812V57H3.98438V45.625H7.95312C8.61458 45.625 9.20573 45.6875 9.72656 45.8125C10.2526 45.9375 10.6979 46.1276 11.0625 46.3828C11.4271 46.638 11.7057 46.9609 11.8984 47.3516C12.0911 47.737 12.1875 48.1953 12.1875 48.7266C12.1875 49.1953 12.0807 49.6276 11.8672 50.0234C11.6589 50.4193 11.3281 50.7422 10.875 50.9922C10.4271 51.2422 9.84115 51.3802 9.11719 51.4062L8.4375 52.0078ZM8.33594 57H4.875L5.78906 55.1719H8.33594C8.7474 55.1719 9.08333 55.1068 9.34375 54.9766C9.60417 54.8411 9.79688 54.6589 9.92188 54.4297C10.0469 54.2005 10.1094 53.9375 10.1094 53.6406C10.1094 53.3073 10.0521 53.0182 9.9375 52.7734C9.82812 52.5286 9.65104 52.3411 9.40625 52.2109C9.16146 52.0755 8.83854 52.0078 8.4375 52.0078H6.17969L6.19531 50.3984H9.00781L9.54688 51.0312C10.2396 51.0208 10.7969 51.1432 11.2188 51.3984C11.6458 51.6484 11.9557 51.974 12.1484 52.375C12.3464 52.776 12.4453 53.2057 12.4453 53.6641C12.4453 54.3932 12.2865 55.0078 11.9688 55.5078C11.651 56.0026 11.1849 56.375 10.5703 56.625C9.96094 56.875 9.21615 57 8.33594 57ZM16.3125 50.3906V57H14.0625V48.5469H16.1797L16.3125 50.3906ZM18.8594 48.4922L18.8203 50.5781C18.7109 50.5625 18.5781 50.5495 18.4219 50.5391C18.2708 50.5234 18.1328 50.5156 18.0078 50.5156C17.6901 50.5156 17.4141 50.5573 17.1797 50.6406C16.9505 50.7188 16.7578 50.8359 16.6016 50.9922C16.4505 51.1484 16.3359 51.3385 16.2578 51.5625C16.1849 51.7865 16.1432 52.0417 16.1328 52.3281L15.6797 52.1875C15.6797 51.6406 15.7344 51.138 15.8438 50.6797C15.9531 50.2161 16.112 49.8125 16.3203 49.4688C16.5339 49.125 16.7943 48.8594 17.1016 48.6719C17.4089 48.4844 17.7604 48.3906 18.1562 48.3906C18.2812 48.3906 18.4089 48.401 18.5391 48.4219C18.6693 48.4375 18.776 48.4609 18.8594 48.4922ZM19.3281 52.8594V52.6953C19.3281 52.0755 19.4167 51.5052 19.5938 50.9844C19.7708 50.4583 20.0286 50.0026 20.3672 49.6172C20.7057 49.2318 21.1224 48.9323 21.6172 48.7188C22.112 48.5 22.6797 48.3906 23.3203 48.3906C23.9609 48.3906 24.5312 48.5 25.0312 48.7188C25.5312 48.9323 25.9505 49.2318 26.2891 49.6172C26.6328 50.0026 26.8932 50.4583 27.0703 50.9844C27.2474 51.5052 27.3359 52.0755 27.3359 52.6953V52.8594C27.3359 53.474 27.2474 54.0443 27.0703 54.5703C26.8932 55.0911 26.6328 55.5469 26.2891 55.9375C25.9505 56.3229 25.5339 56.6224 25.0391 56.8359C24.5443 57.0495 23.9766 57.1562 23.3359 57.1562C22.6953 57.1562 22.125 57.0495 21.625 56.8359C21.1302 56.6224 20.7109 56.3229 20.3672 55.9375C20.0286 55.5469 19.7708 55.0911 19.5938 54.5703C19.4167 54.0443 19.3281 53.474 19.3281 52.8594ZM21.5781 52.6953V52.8594C21.5781 53.2135 21.6094 53.5443 21.6719 53.8516C21.7344 54.1589 21.8333 54.4297 21.9688 54.6641C22.1094 54.8932 22.2917 55.0729 22.5156 55.2031C22.7396 55.3333 23.013 55.3984 23.3359 55.3984C23.6484 55.3984 23.9167 55.3333 24.1406 55.2031C24.3646 55.0729 24.5443 54.8932 24.6797 54.6641C24.8151 54.4297 24.9141 54.1589 24.9766 53.8516C25.0443 53.5443 25.0781 53.2135 25.0781 52.8594V52.6953C25.0781 52.3516 25.0443 52.0286 24.9766 51.7266C24.9141 51.4193 24.8125 51.1484 24.6719 50.9141C24.5365 50.6745 24.3568 50.487 24.1328 50.3516C23.9089 50.2161 23.638 50.1484 23.3203 50.1484C23.0026 50.1484 22.7318 50.2161 22.5078 50.3516C22.2891 50.487 22.1094 50.6745 21.9688 50.9141C21.8333 51.1484 21.7344 51.4193 21.6719 51.7266C21.6094 52.0286 21.5781 52.3516 21.5781 52.6953ZM33.2812 55.0938V51.3281C33.2812 51.0573 33.237 50.8255 33.1484 50.6328C33.0599 50.4349 32.9219 50.2812 32.7344 50.1719C32.5521 50.0625 32.3151 50.0078 32.0234 50.0078C31.7734 50.0078 31.5573 50.0521 31.375 50.1406C31.1927 50.224 31.0521 50.3464 30.9531 50.5078C30.8542 50.6641 30.8047 50.849 30.8047 51.0625H28.5547C28.5547 50.7031 28.638 50.362 28.8047 50.0391C28.9714 49.7161 29.2135 49.4323 29.5312 49.1875C29.849 48.9375 30.2266 48.7422 30.6641 48.6016C31.1068 48.4609 31.6016 48.3906 32.1484 48.3906C32.8047 48.3906 33.388 48.5 33.8984 48.7188C34.4089 48.9375 34.8099 49.2656 35.1016 49.7031C35.3984 50.1406 35.5469 50.6875 35.5469 51.3438V54.9609C35.5469 55.4245 35.5755 55.8047 35.6328 56.1016C35.6901 56.3932 35.7734 56.6484 35.8828 56.8672V57H33.6094C33.5 56.7708 33.4167 56.4844 33.3594 56.1406C33.3073 55.7917 33.2812 55.4427 33.2812 55.0938ZM33.5781 51.8516L33.5938 53.125H32.3359C32.0391 53.125 31.7812 53.1589 31.5625 53.2266C31.3438 53.2943 31.1641 53.3906 31.0234 53.5156C30.8828 53.6354 30.7786 53.776 30.7109 53.9375C30.6484 54.099 30.6172 54.276 30.6172 54.4688C30.6172 54.6615 30.6615 54.8359 30.75 54.9922C30.8385 55.1432 30.9661 55.263 31.1328 55.3516C31.2995 55.4349 31.4948 55.4766 31.7188 55.4766C32.0573 55.4766 32.3516 55.4089 32.6016 55.2734C32.8516 55.138 33.0443 54.9714 33.1797 54.7734C33.3203 54.5755 33.3932 54.388 33.3984 54.2109L33.9922 55.1641C33.9089 55.3776 33.7943 55.599 33.6484 55.8281C33.5078 56.0573 33.3281 56.2734 33.1094 56.4766C32.8906 56.6745 32.6276 56.8385 32.3203 56.9688C32.013 57.0938 31.6484 57.1562 31.2266 57.1562C30.6901 57.1562 30.2031 57.0495 29.7656 56.8359C29.3333 56.6172 28.9896 56.3177 28.7344 55.9375C28.4844 55.5521 28.3594 55.1146 28.3594 54.625C28.3594 54.1823 28.4427 53.7891 28.6094 53.4453C28.776 53.1016 29.0208 52.8125 29.3438 52.5781C29.6719 52.3385 30.0807 52.1589 30.5703 52.0391C31.0599 51.9141 31.6276 51.8516 32.2734 51.8516H33.5781ZM42.2734 55.1562V45H44.5391V57H42.5L42.2734 55.1562ZM36.9297 52.875V52.7109C36.9297 52.0651 37.0026 51.4792 37.1484 50.9531C37.2943 50.4219 37.5078 49.9661 37.7891 49.5859C38.0703 49.2057 38.4167 48.9115 38.8281 48.7031C39.2396 48.4948 39.7083 48.3906 40.2344 48.3906C40.7292 48.3906 41.1615 48.4948 41.5312 48.7031C41.9062 48.9115 42.224 49.2083 42.4844 49.5938C42.75 49.974 42.9635 50.4245 43.125 50.9453C43.2865 51.4609 43.4036 52.026 43.4766 52.6406V53C43.4036 53.5885 43.2865 54.1354 43.125 54.6406C42.9635 55.1458 42.75 55.5885 42.4844 55.9688C42.224 56.3438 41.9062 56.6354 41.5312 56.8438C41.1562 57.0521 40.7188 57.1562 40.2188 57.1562C39.6927 57.1562 39.224 57.0495 38.8125 56.8359C38.4062 56.6224 38.0625 56.3229 37.7812 55.9375C37.5052 55.5521 37.2943 55.099 37.1484 54.5781C37.0026 54.0573 36.9297 53.4896 36.9297 52.875ZM39.1797 52.7109V52.875C39.1797 53.224 39.2057 53.5495 39.2578 53.8516C39.3151 54.1536 39.4062 54.4219 39.5312 54.6562C39.6615 54.8854 39.8281 55.0651 40.0312 55.1953C40.2396 55.3203 40.4922 55.3828 40.7891 55.3828C41.1745 55.3828 41.4922 55.2969 41.7422 55.125C41.9922 54.9479 42.1823 54.7057 42.3125 54.3984C42.4479 54.0911 42.526 53.737 42.5469 53.3359V52.3125C42.5312 51.9844 42.4844 51.6901 42.4062 51.4297C42.3333 51.1641 42.224 50.9375 42.0781 50.75C41.9375 50.5625 41.7604 50.4167 41.5469 50.3125C41.3385 50.2083 41.0911 50.1562 40.8047 50.1562C40.513 50.1562 40.263 50.224 40.0547 50.3594C39.8464 50.4896 39.6771 50.6693 39.5469 50.8984C39.4219 51.1276 39.3281 51.3984 39.2656 51.7109C39.2083 52.0182 39.1797 52.3516 39.1797 52.7109ZM49.7891 55.3984C50.0651 55.3984 50.3099 55.3464 50.5234 55.2422C50.737 55.1328 50.9036 54.9818 51.0234 54.7891C51.1484 54.5911 51.2135 54.3594 51.2188 54.0938H53.3359C53.3307 54.6875 53.1719 55.2161 52.8594 55.6797C52.5469 56.138 52.1276 56.5 51.6016 56.7656C51.0755 57.026 50.487 57.1562 49.8359 57.1562C49.1797 57.1562 48.6068 57.0469 48.1172 56.8281C47.6328 56.6094 47.2292 56.3073 46.9062 55.9219C46.5833 55.5312 46.3411 55.0781 46.1797 54.5625C46.0182 54.0417 45.9375 53.4844 45.9375 52.8906V52.6641C45.9375 52.0651 46.0182 51.5078 46.1797 50.9922C46.3411 50.4714 46.5833 50.0182 46.9062 49.6328C47.2292 49.2422 47.6328 48.9375 48.1172 48.7188C48.6016 48.5 49.1693 48.3906 49.8203 48.3906C50.513 48.3906 51.1198 48.5234 51.6406 48.7891C52.1667 49.0547 52.5781 49.4349 52.875 49.9297C53.1771 50.4193 53.3307 51 53.3359 51.6719H51.2188C51.2135 51.3906 51.1536 51.1354 51.0391 50.9062C50.9297 50.6771 50.7682 50.4948 50.5547 50.3594C50.3464 50.2188 50.0885 50.1484 49.7812 50.1484C49.4531 50.1484 49.1849 50.2188 48.9766 50.3594C48.7682 50.4948 48.6068 50.6823 48.4922 50.9219C48.3776 51.1562 48.2969 51.4245 48.25 51.7266C48.2083 52.0234 48.1875 52.3359 48.1875 52.6641V52.8906C48.1875 53.2188 48.2083 53.5339 48.25 53.8359C48.2917 54.138 48.3698 54.4062 48.4844 54.6406C48.6042 54.875 48.7682 55.0599 48.9766 55.1953C49.1849 55.3307 49.4557 55.3984 49.7891 55.3984ZM59.2031 55.0938V51.3281C59.2031 51.0573 59.1589 50.8255 59.0703 50.6328C58.9818 50.4349 58.8438 50.2812 58.6562 50.1719C58.474 50.0625 58.237 50.0078 57.9453 50.0078C57.6953 50.0078 57.4792 50.0521 57.2969 50.1406C57.1146 50.224 56.974 50.3464 56.875 50.5078C56.776 50.6641 56.7266 50.849 56.7266 51.0625H54.4766C54.4766 50.7031 54.5599 50.362 54.7266 50.0391C54.8932 49.7161 55.1354 49.4323 55.4531 49.1875C55.7708 48.9375 56.1484 48.7422 56.5859 48.6016C57.0286 48.4609 57.5234 48.3906 58.0703 48.3906C58.7266 48.3906 59.3099 48.5 59.8203 48.7188C60.3307 48.9375 60.7318 49.2656 61.0234 49.7031C61.3203 50.1406 61.4688 50.6875 61.4688 51.3438V54.9609C61.4688 55.4245 61.4974 55.8047 61.5547 56.1016C61.612 56.3932 61.6953 56.6484 61.8047 56.8672V57H59.5312C59.4219 56.7708 59.3385 56.4844 59.2812 56.1406C59.2292 55.7917 59.2031 55.4427 59.2031 55.0938ZM59.5 51.8516L59.5156 53.125H58.2578C57.9609 53.125 57.7031 53.1589 57.4844 53.2266C57.2656 53.2943 57.0859 53.3906 56.9453 53.5156C56.8047 53.6354 56.7005 53.776 56.6328 53.9375C56.5703 54.099 56.5391 54.276 56.5391 54.4688C56.5391 54.6615 56.5833 54.8359 56.6719 54.9922C56.7604 55.1432 56.888 55.263 57.0547 55.3516C57.2214 55.4349 57.4167 55.4766 57.6406 55.4766C57.9792 55.4766 58.2734 55.4089 58.5234 55.2734C58.7734 55.138 58.9661 54.9714 59.1016 54.7734C59.2422 54.5755 59.3151 54.388 59.3203 54.2109L59.9141 55.1641C59.8307 55.3776 59.7161 55.599 59.5703 55.8281C59.4297 56.0573 59.25 56.2734 59.0312 56.4766C58.8125 56.6745 58.5495 56.8385 58.2422 56.9688C57.9349 57.0938 57.5703 57.1562 57.1484 57.1562C56.612 57.1562 56.125 57.0495 55.6875 56.8359C55.2552 56.6172 54.9115 56.3177 54.6562 55.9375C54.4062 55.5521 54.2812 55.1146 54.2812 54.625C54.2812 54.1823 54.3646 53.7891 54.5312 53.4453C54.6979 53.1016 54.9427 52.8125 55.2656 52.5781C55.5938 52.3385 56.0026 52.1589 56.4922 52.0391C56.9818 51.9141 57.5495 51.8516 58.1953 51.8516H59.5ZM67.7734 54.6641C67.7734 54.5026 67.7266 54.3568 67.6328 54.2266C67.5391 54.0964 67.3646 53.9766 67.1094 53.8672C66.8594 53.7526 66.4974 53.6484 66.0234 53.5547C65.5964 53.4609 65.1979 53.3438 64.8281 53.2031C64.4635 53.0573 64.1458 52.8828 63.875 52.6797C63.6094 52.4766 63.401 52.237 63.25 51.9609C63.099 51.6797 63.0234 51.3594 63.0234 51C63.0234 50.6458 63.099 50.3125 63.25 50C63.4062 49.6875 63.6276 49.4115 63.9141 49.1719C64.2057 48.9271 64.5599 48.737 64.9766 48.6016C65.3984 48.4609 65.8724 48.3906 66.3984 48.3906C67.1328 48.3906 67.763 48.5078 68.2891 48.7422C68.8203 48.9766 69.2266 49.2995 69.5078 49.7109C69.7943 50.1172 69.9375 50.5807 69.9375 51.1016H67.6875C67.6875 50.8828 67.6406 50.6875 67.5469 50.5156C67.4583 50.3385 67.3177 50.2005 67.125 50.1016C66.9375 49.9974 66.6927 49.9453 66.3906 49.9453C66.1406 49.9453 65.9245 49.9896 65.7422 50.0781C65.5599 50.1615 65.4193 50.276 65.3203 50.4219C65.2266 50.5625 65.1797 50.7188 65.1797 50.8906C65.1797 51.0208 65.2057 51.138 65.2578 51.2422C65.3151 51.3411 65.4062 51.4323 65.5312 51.5156C65.6562 51.599 65.8177 51.6771 66.0156 51.75C66.2188 51.8177 66.4688 51.8802 66.7656 51.9375C67.375 52.0625 67.9193 52.2266 68.3984 52.4297C68.8776 52.6276 69.2578 52.8984 69.5391 53.2422C69.8203 53.5807 69.9609 54.026 69.9609 54.5781C69.9609 54.9531 69.8776 55.2969 69.7109 55.6094C69.5443 55.9219 69.3047 56.1953 68.9922 56.4297C68.6797 56.6589 68.3047 56.8385 67.8672 56.9688C67.4349 57.0938 66.9479 57.1562 66.4062 57.1562C65.6198 57.1562 64.9531 57.0156 64.4062 56.7344C63.8646 56.4531 63.4531 56.0964 63.1719 55.6641C62.8958 55.2266 62.7578 54.7786 62.7578 54.3203H64.8906C64.901 54.6276 64.9792 54.875 65.125 55.0625C65.276 55.25 65.4661 55.3854 65.6953 55.4688C65.9297 55.5521 66.1823 55.5938 66.4531 55.5938C66.7448 55.5938 66.987 55.5547 67.1797 55.4766C67.3724 55.3932 67.5182 55.2839 67.6172 55.1484C67.7214 55.0078 67.7734 54.8464 67.7734 54.6641ZM75.5625 48.5469V50.1406H70.6406V48.5469H75.5625ZM71.8594 46.4609H74.1094V54.4531C74.1094 54.6979 74.1406 54.8854 74.2031 55.0156C74.2708 55.1458 74.3698 55.237 74.5 55.2891C74.6302 55.3359 74.7943 55.3594 74.9922 55.3594C75.1328 55.3594 75.2578 55.3542 75.3672 55.3438C75.4818 55.3281 75.5781 55.3125 75.6562 55.2969L75.6641 56.9531C75.4714 57.0156 75.263 57.0651 75.0391 57.1016C74.8151 57.138 74.5677 57.1562 74.2969 57.1562C73.8021 57.1562 73.3698 57.0755 73 56.9141C72.6354 56.7474 72.3542 56.4818 72.1562 56.1172C71.9583 55.7526 71.8594 55.2734 71.8594 54.6797V46.4609ZM82.5312 45.625L84.9062 50.8125L87.2812 45.625H89.8359L86.0938 52.8594V57H83.7188V52.8594L79.9688 45.625H82.5312ZM89.8594 52.8594V52.6953C89.8594 52.0755 89.9479 51.5052 90.125 50.9844C90.3021 50.4583 90.5599 50.0026 90.8984 49.6172C91.237 49.2318 91.6536 48.9323 92.1484 48.7188C92.6432 48.5 93.2109 48.3906 93.8516 48.3906C94.4922 48.3906 95.0625 48.5 95.5625 48.7188C96.0625 48.9323 96.4818 49.2318 96.8203 49.6172C97.1641 50.0026 97.4245 50.4583 97.6016 50.9844C97.7786 51.5052 97.8672 52.0755 97.8672 52.6953V52.8594C97.8672 53.474 97.7786 54.0443 97.6016 54.5703C97.4245 55.0911 97.1641 55.5469 96.8203 55.9375C96.4818 56.3229 96.0651 56.6224 95.5703 56.8359C95.0755 57.0495 94.5078 57.1562 93.8672 57.1562C93.2266 57.1562 92.6562 57.0495 92.1562 56.8359C91.6615 56.6224 91.2422 56.3229 90.8984 55.9375C90.5599 55.5469 90.3021 55.0911 90.125 54.5703C89.9479 54.0443 89.8594 53.474 89.8594 52.8594ZM92.1094 52.6953V52.8594C92.1094 53.2135 92.1406 53.5443 92.2031 53.8516C92.2656 54.1589 92.3646 54.4297 92.5 54.6641C92.6406 54.8932 92.8229 55.0729 93.0469 55.2031C93.2708 55.3333 93.5443 55.3984 93.8672 55.3984C94.1797 55.3984 94.4479 55.3333 94.6719 55.2031C94.8958 55.0729 95.0755 54.8932 95.2109 54.6641C95.3464 54.4297 95.4453 54.1589 95.5078 53.8516C95.5755 53.5443 95.6094 53.2135 95.6094 52.8594V52.6953C95.6094 52.3516 95.5755 52.0286 95.5078 51.7266C95.4453 51.4193 95.3438 51.1484 95.2031 50.9141C95.0677 50.6745 94.888 50.487 94.6641 50.3516C94.4401 50.2161 94.1693 50.1484 93.8516 50.1484C93.5339 50.1484 93.263 50.2161 93.0391 50.3516C92.8203 50.487 92.6406 50.6745 92.5 50.9141C92.3646 51.1484 92.2656 51.4193 92.2031 51.7266C92.1406 52.0286 92.1094 52.3516 92.1094 52.6953ZM104.25 54.9766V48.5469H106.5V57H104.383L104.25 54.9766ZM104.5 53.2422L105.164 53.2266C105.164 53.7891 105.099 54.3125 104.969 54.7969C104.839 55.276 104.643 55.6927 104.383 56.0469C104.122 56.3958 103.794 56.6693 103.398 56.8672C103.003 57.0599 102.536 57.1562 102 57.1562C101.589 57.1562 101.208 57.099 100.859 56.9844C100.516 56.8646 100.219 56.6797 99.9688 56.4297C99.724 56.1745 99.5312 55.849 99.3906 55.4531C99.2552 55.0521 99.1875 54.5703 99.1875 54.0078V48.5469H101.438V54.0234C101.438 54.2734 101.466 54.4844 101.523 54.6562C101.586 54.8281 101.672 54.9688 101.781 55.0781C101.891 55.1875 102.018 55.2656 102.164 55.3125C102.315 55.3594 102.482 55.3828 102.664 55.3828C103.128 55.3828 103.492 55.2891 103.758 55.1016C104.029 54.9141 104.219 54.6589 104.328 54.3359C104.443 54.0078 104.5 53.6432 104.5 53.2422ZM110.469 50.3906V57H108.219V48.5469H110.336L110.469 50.3906ZM113.016 48.4922L112.977 50.5781C112.867 50.5625 112.734 50.5495 112.578 50.5391C112.427 50.5234 112.289 50.5156 112.164 50.5156C111.846 50.5156 111.57 50.5573 111.336 50.6406C111.107 50.7188 110.914 50.8359 110.758 50.9922C110.607 51.1484 110.492 51.3385 110.414 51.5625C110.341 51.7865 110.299 52.0417 110.289 52.3281L109.836 52.1875C109.836 51.6406 109.891 51.138 110 50.6797C110.109 50.2161 110.268 49.8125 110.477 49.4688C110.69 49.125 110.951 48.8594 111.258 48.6719C111.565 48.4844 111.917 48.3906 112.312 48.3906C112.438 48.3906 112.565 48.401 112.695 48.4219C112.826 48.4375 112.932 48.4609 113.016 48.4922ZM118.648 54.6641C118.648 54.5026 118.602 54.3568 118.508 54.2266C118.414 54.0964 118.24 53.9766 117.984 53.8672C117.734 53.7526 117.372 53.6484 116.898 53.5547C116.471 53.4609 116.073 53.3438 115.703 53.2031C115.339 53.0573 115.021 52.8828 114.75 52.6797C114.484 52.4766 114.276 52.237 114.125 51.9609C113.974 51.6797 113.898 51.3594 113.898 51C113.898 50.6458 113.974 50.3125 114.125 50C114.281 49.6875 114.503 49.4115 114.789 49.1719C115.081 48.9271 115.435 48.737 115.852 48.6016C116.273 48.4609 116.747 48.3906 117.273 48.3906C118.008 48.3906 118.638 48.5078 119.164 48.7422C119.695 48.9766 120.102 49.2995 120.383 49.7109C120.669 50.1172 120.812 50.5807 120.812 51.1016H118.562C118.562 50.8828 118.516 50.6875 118.422 50.5156C118.333 50.3385 118.193 50.2005 118 50.1016C117.812 49.9974 117.568 49.9453 117.266 49.9453C117.016 49.9453 116.799 49.9896 116.617 50.0781C116.435 50.1615 116.294 50.276 116.195 50.4219C116.102 50.5625 116.055 50.7188 116.055 50.8906C116.055 51.0208 116.081 51.138 116.133 51.2422C116.19 51.3411 116.281 51.4323 116.406 51.5156C116.531 51.599 116.693 51.6771 116.891 51.75C117.094 51.8177 117.344 51.8802 117.641 51.9375C118.25 52.0625 118.794 52.2266 119.273 52.4297C119.753 52.6276 120.133 52.8984 120.414 53.2422C120.695 53.5807 120.836 54.026 120.836 54.5781C120.836 54.9531 120.753 55.2969 120.586 55.6094C120.419 55.9219 120.18 56.1953 119.867 56.4297C119.555 56.6589 119.18 56.8385 118.742 56.9688C118.31 57.0938 117.823 57.1562 117.281 57.1562C116.495 57.1562 115.828 57.0156 115.281 56.7344C114.74 56.4531 114.328 56.0964 114.047 55.6641C113.771 55.2266 113.633 54.7786 113.633 54.3203H115.766C115.776 54.6276 115.854 54.875 116 55.0625C116.151 55.25 116.341 55.3854 116.57 55.4688C116.805 55.5521 117.057 55.5938 117.328 55.5938C117.62 55.5938 117.862 55.5547 118.055 55.4766C118.247 55.3932 118.393 55.2839 118.492 55.1484C118.596 55.0078 118.648 54.8464 118.648 54.6641ZM126.188 57.1562C125.531 57.1562 124.943 57.0521 124.422 56.8438C123.901 56.6302 123.458 56.3359 123.094 55.9609C122.734 55.5859 122.458 55.151 122.266 54.6562C122.073 54.1562 121.977 53.625 121.977 53.0625V52.75C121.977 52.1094 122.068 51.5234 122.25 50.9922C122.432 50.4609 122.693 50 123.031 49.6094C123.375 49.2188 123.792 48.9193 124.281 48.7109C124.771 48.4974 125.323 48.3906 125.938 48.3906C126.536 48.3906 127.068 48.4896 127.531 48.6875C127.995 48.8854 128.383 49.1667 128.695 49.5312C129.013 49.8958 129.253 50.3333 129.414 50.8438C129.576 51.349 129.656 51.9115 129.656 52.5312V53.4688H122.938V51.9688H127.445V51.7969C127.445 51.4844 127.388 51.2057 127.273 50.9609C127.164 50.7109 126.997 50.513 126.773 50.3672C126.549 50.2214 126.263 50.1484 125.914 50.1484C125.617 50.1484 125.362 50.2135 125.148 50.3438C124.935 50.474 124.76 50.6562 124.625 50.8906C124.495 51.125 124.396 51.401 124.328 51.7188C124.266 52.0312 124.234 52.375 124.234 52.75V53.0625C124.234 53.401 124.281 53.7135 124.375 54C124.474 54.2865 124.612 54.5339 124.789 54.7422C124.971 54.9505 125.19 55.112 125.445 55.2266C125.706 55.3411 126 55.3984 126.328 55.3984C126.734 55.3984 127.112 55.3203 127.461 55.1641C127.815 55.0026 128.12 54.7604 128.375 54.4375L129.469 55.625C129.292 55.8802 129.049 56.125 128.742 56.3594C128.44 56.5938 128.076 56.7865 127.648 56.9375C127.221 57.0833 126.734 57.1562 126.188 57.1562ZM133.312 45V57H131.055V45H133.312ZM138.039 57H135.773V47.7969C135.773 47.1562 135.898 46.6172 136.148 46.1797C136.404 45.737 136.76 45.4036 137.219 45.1797C137.682 44.9505 138.232 44.8359 138.867 44.8359C139.076 44.8359 139.276 44.8516 139.469 44.8828C139.661 44.9089 139.849 44.9427 140.031 44.9844L140.008 46.6797C139.909 46.6536 139.805 46.6354 139.695 46.625C139.586 46.6146 139.458 46.6094 139.312 46.6094C139.042 46.6094 138.81 46.6562 138.617 46.75C138.43 46.8385 138.286 46.9714 138.188 47.1484C138.089 47.3255 138.039 47.5417 138.039 47.7969V57ZM139.727 48.5469V50.1406H134.516V48.5469H139.727Z" fill="white"/>
</svg>
